# xmcd
#
# Track frame offsets:
#	150
#	43607
#	60233
#	91490
#	129165
#	162081
#	189805
#	227151
#	244003
#	279628
#
# Disc length: 4553 seconds
#
# Revision: 1
# Processed by: cddbd v1.5.2PL0 Copyright (c) Steve Scherf et al.
# Submitted via: EasyCDDAExtractor 16.0.6.1
#
DISCID=7611c70a
DTITLE=Various Artist - Sighisoara Blues Festival 4
DYEAR=2008
DGENRE=Blues
TTITLE0=Survolaj - Love Me and Hate Me
TTITLE1=Someday Baby - Dry Spell Blues
TTITLE2=Tatrai Tibor - Tobacco Road
TTITLE3=Tatrai Tibor - Little Wing
TTITLE4=Debbie Davies - My Time After a While
TTITLE5=Debbie Davies - I'm a Blues Woman
TTITLE6=Corey Harris - Special Rider Blues
TTITLE7=Corey Harris - Corey's St. Louis Blues
TTITLE8=Sugar Blue - Sugar's Another Man Done Gone
TTITLE9=Sugar Blue - Help Me
EXTD=YEAR: 2008
EXTT0=
EXTT1=
EXTT2=
EXTT3=
EXTT4=
EXTT5=
EXTT6=
EXTT7=
EXTT8=
EXTT9=
PLAYORDER=
